<?xml version="1.0" standalone="no"?>
<!DOCTYPE svg PUBLIC "-//W3C//DTD SVG 20010904//EN"
 "http://www.w3.org/TR/2001/REC-SVG-20010904/DTD/svg10.dtd">
<svg version="1.0" xmlns="http://www.w3.org/2000/svg"
 width="200.000000pt" height="200.000000pt" viewBox="0 0 200.000000 200.000000"
 preserveAspectRatio="xMidYMid meet">
<metadata>
Created by potrace 1.14, written by Peter Selinger 2001-2017
</metadata>
<g transform="translate(0.000000,200.000000) scale(0.100000,-0.100000)"
fill="#000000" stroke="none">
<path d="M0 1000 l0 -1000 1000 0 1000 0 0 1000 0 1000 -1000 0 -1000 0 0
-1000z m1267 825 c140 -36 265 -70 279 -75 41 -16 30 -45 -28 -77 -29 -16
-155 -86 -279 -156 -125 -70 -234 -127 -243 -127 -14 0 -16 27 -16 250 0 226
2 250 17 250 9 0 131 -29 270 -65z m274 -286 c34 -17 72 -41 85 -54 l24 -24 0
-341 c0 -311 -1 -341 -18 -358 -35 -35 -549 -322 -566 -316 -14 5 -16 41 -16
333 0 246 3 331 13 344 6 9 113 74 237 145 172 97 225 132 225 147 0 14 -22
32 -73 61 l-74 42 44 26 c23 14 47 26 51 26 4 0 35 -14 68 -31z m-447 -1155
c14 -14 14 -18 0 -45 -24 -48 -12 -53 36 -17 91 68 96 70 121 49 28 -22 22
-32 -47 -76 -30 -19 -58 -43 -61 -52 -9 -24 24 -43 77 -43 25 0 51 -5 57 -11
18 -18 53 59 42 90 -13 34 3 47 76 61 68 13 119 7 113 -12 -5 -15 -24 -24 -80
-39 -55 -13 -63 -29 -15 -29 30 0 57 -14 57 -30 0 -12 -50 -30 -80 -30 -20 0
-33 -7 -41 -22 -11 -21 -11 -21 54 -15 48 4 68 3 76 -7 17 -21 -12 -38 -76
-47 -64 -9 -99 1 -108 31 -6 20 -8 21 -26 4 -26 -23 -82 -13 -137 26 -42 30
-45 30 -63 14 -19 -17 -19 -14 -19 99 0 95 3 117 14 117 8 0 22 -7 30 -16z
m647 -57 c6 -8 -26 -142 -42 -172 -5 -12 -19 -27 -30 -34 -18 -11 -24 -8 -55
24 l-34 37 -15 -36 c-19 -44 -38 -46 -55 -6 -11 27 -9 37 30 120 24 49 49 90
55 90 7 0 19 -8 29 -19 14 -16 15 -24 5 -63 -7 -25 -9 -53 -5 -64 7 -18 8 -18
26 4 11 13 22 40 25 60 4 20 11 49 17 65 9 23 13 25 27 15 9 -7 19 -16 22 -21z"/>
</g>
</svg>
